<svg width="48" height="48" viewBox="0 0 100 100" fill="none" xmlns="http://www.w3.org/2000/svg">
<path d="M42.4166 70.8667C42.9166 70.8667 43.2958 70.85 43.5458 70.8167C43.8391 70.7573 44.1035 70.6001 44.2958 70.3708C44.5458 70.1083 44.6708 69.7292 44.6708 69.2292L44.6541 66.9083C44.6416 65.4292 44.6375 64.2542 44.6375 63.3917L43.8541 63.5292C43.2273 63.6279 42.5925 63.6669 41.9583 63.6458C41.1615 63.6317 40.3671 63.5523 39.5833 63.4083C38.7515 63.2532 37.9687 62.9018 37.3 62.3833C36.599 61.853 36.0758 61.1221 35.8 60.2875L35.4583 59.5C35.1709 58.8798 34.81 58.2965 34.3833 57.7625C34.0002 57.215 33.4897 56.7688 32.8958 56.4625L32.6583 56.2958C32.4947 56.1753 32.3464 56.0354 32.2166 55.8792C32.0907 55.7372 31.9867 55.577 31.9083 55.4042C31.8416 55.2458 31.8958 55.1125 32.075 55.0125C32.3894 54.8861 32.7286 54.8334 33.0666 54.8583L33.75 54.9625C34.2083 55.05 34.7708 55.325 35.4416 55.7792C36.1083 56.2375 36.6625 56.825 37.0958 57.5542C37.6208 58.4875 38.25 59.2 38.9916 59.6875C39.6463 60.1492 40.424 60.4046 41.225 60.4208C41.975 60.4208 42.625 60.3667 43.1708 60.2542C43.7021 60.144 44.2183 59.9705 44.7083 59.7375C44.9125 58.2167 45.4666 57.0417 46.375 56.225C45.1957 56.1084 44.0271 55.9022 42.8791 55.6083C41.7583 55.2994 40.6805 54.8515 39.6708 54.275C38.6134 53.7014 37.6791 52.9255 36.9208 51.9917C36.1958 51.0792 35.6 49.8875 35.1291 48.4083C34.6382 46.7467 34.4036 45.0199 34.4333 43.2875C34.4333 40.5375 35.3333 38.1917 37.1291 36.2583C36.2875 34.1875 36.3666 31.8667 37.3666 29.2958C38.0291 29.0875 39.0083 29.2417 40.3041 29.7542C41.6 30.2667 42.5541 30.7042 43.1541 31.0708C43.7583 31.4333 44.2375 31.7375 44.6041 31.9875C46.7382 31.3948 48.9435 31.0976 51.1583 31.1042C53.4083 31.1042 55.5958 31.3958 57.7125 31.9917L59.0041 31.1708C59.8958 30.6292 60.9416 30.125 62.1458 29.6708C63.3541 29.2125 64.275 29.0875 64.9125 29.2958C65.9375 31.8667 66.0291 34.1875 65.1833 36.2542C66.9833 38.1917 67.8833 40.5333 67.8833 43.2875C67.8833 45.2208 67.65 46.9333 67.1833 48.425C66.7166 49.9167 66.1125 51.1083 65.375 52.0083C64.6042 52.933 63.6655 53.7035 62.6083 54.2792C61.5987 54.8558 60.5209 55.3037 59.4 55.6125C58.2505 55.9053 57.0805 56.11 55.9 56.225C57.0833 57.2458 57.675 58.8625 57.675 61.0708V69.225C57.675 69.6125 57.7333 69.925 57.8458 70.1667C57.8987 70.2818 57.9744 70.385 58.0682 70.4702C58.1619 70.5554 58.272 70.6208 58.3916 70.6625C58.6416 70.75 58.8666 70.8083 59.0583 70.8292C59.2541 70.8542 59.5291 70.8667 59.8916 70.8667H42.4166Z" fill="#FF3E00"/>
<path d="M50 83.3333C58.8405 83.3333 67.319 79.8214 73.5702 73.5702C79.8214 67.319 83.3333 58.8406 83.3333 50C83.3333 41.1595 79.8214 32.681 73.5702 26.4298C67.319 20.1786 58.8405 16.6667 50 16.6667C41.1594 16.6667 32.681 20.1786 26.4298 26.4298C20.1785 32.681 16.6666 41.1595 16.6666 50C16.6666 58.8406 20.1785 67.319 26.4298 73.5702C32.681 79.8214 41.1594 83.3333 50 83.3333ZM50 91.6667C26.9875 91.6667 8.33331 73.0125 8.33331 50C8.33331 26.9875 26.9875 8.33334 50 8.33334C73.0125 8.33334 91.6666 26.9875 91.6666 50C91.6666 73.0125 73.0125 91.6667 50 91.6667Z" fill="#FF3E00"/>
</svg>
