<svg width="48" height="48" viewBox="0 0 100 100" fill="none" xmlns="http://www.w3.org/2000/svg">
<path d="M50 83.3333C31.6667 83.3333 16.6667 68.3333 16.6667 50C16.6667 31.6667 31.6667 16.6667 50 16.6667C68.3333 16.6667 83.3333 31.6667 83.3333 50C83.3333 68.3333 68.3333 83.3333 50 83.3333ZM50 8.33334C27.0833 8.33334 8.33334 27.0833 8.33334 50C8.33334 72.9167 27.0833 91.6667 50 91.6667C72.9167 91.6667 91.6667 72.9167 91.6667 50C91.6667 27.0833 72.9167 8.33334 50 8.33334ZM45.8333 58.3333H54.1667V70.8333H66.6667V50H75L50 29.1667L25 50H33.3333V70.8333H45.8333V58.3333Z" fill="#FF3E00"/>
</svg>
