<svg width="48" height="48" viewBox="0 0 100 100" fill="none" xmlns="http://www.w3.org/2000/svg">
<path d="M38 70C36.9 70 35.9587 69.6087 35.176 68.826C34.3933 68.0433 34.0013 67.1013 34 66V34C34 32.9 34.392 31.9587 35.176 31.176C35.96 30.3933 36.9013 30.0013 38 30H62C63.1 30 64.042 30.392 64.826 31.176C65.61 31.96 66.0013 32.9013 66 34V66C66 67.1 65.6087 68.042 64.826 68.826C64.0433 69.61 63.1013 70.0013 62 70H38ZM48 34V46.25C48 46.65 48.1587 46.942 48.476 47.126C48.7933 47.31 49.1347 47.3013 49.5 47.1L51.95 45.65C52.2833 45.45 52.6253 45.35 52.976 45.35C53.3267 45.35 53.668 45.45 54 45.65L56.45 47.1C56.8167 47.3 57.1667 47.3087 57.5 47.126C57.8333 46.9433 58 46.6513 58 46.25V34H48Z" fill="#FF3E00"/>
<path d="M49.6667 83C58.5072 83 66.9857 79.4881 73.2369 73.2369C79.4881 66.9857 83 58.5072 83 49.6667C83 40.8261 79.4881 32.3477 73.2369 26.0964C66.9857 19.8452 58.5072 16.3333 49.6667 16.3333C40.8261 16.3333 32.3477 19.8452 26.0964 26.0964C19.8452 32.3477 16.3333 40.8261 16.3333 49.6667C16.3333 58.5072 19.8452 66.9857 26.0964 73.2369C32.3477 79.4881 40.8261 83 49.6667 83ZM49.6667 91.3333C26.6542 91.3333 8 72.6792 8 49.6667C8 26.6542 26.6542 8 49.6667 8C72.6792 8 91.3333 26.6542 91.3333 49.6667C91.3333 72.6792 72.6792 91.3333 49.6667 91.3333Z" fill="#FF3E00"/>
</svg>
